<?xml version="1.0" ?><!-- Uploaded to: SVG Repo, www.svgrepo.com, Generator: SVG Repo Mixer Tools -->
<svg width="800px" height="800px" viewBox="0 0 2050 2050" data-name="Layer 2" id="Layer_2" xmlns="http://www.w3.org/2000/svg"><defs><style>.cls-1{fill:#67baeb;}.cls-2{fill:#4d4c78;}.cls-3{fill:#46a1f8;}.cls-4{fill:#323150;}.cls-5{fill:#64639c;}</style></defs><title/><rect class="cls-1" height="1210.74" rx="65.8" ry="65.8" width="1531.3" x="259.3" y="290.9"/><path class="cls-2" d="M259.3,1261.3v174.5a65.8,65.8,0,0,0,65.8,65.8H1724.9a65.8,65.8,0,0,0,65.8-65.8V1261.3Z"/><path class="cls-2" d="M259.3,1261.3v174.5a65.8,65.8,0,0,0,65.8,65.8H1724.9a65.8,65.8,0,0,0,65.8-65.8V1261.3Z"/><path class="cls-3" d="M397,1449a65.9,65.9,0,0,1-65.9-65.9V304a70.1,70.1,0,0,1,1.3-13.1h-7.3a65.9,65.9,0,0,0-65.8,65.8V1435.8a65.8,65.8,0,0,0,65.8,65.8H1724.9a65.9,65.9,0,0,0,64.5-52.6Z"/><path class="cls-4" d="M397,1449a65.9,65.9,0,0,1-65.9-65.9V1261.3H259.3v174.5a65.8,65.8,0,0,0,65.8,65.8H1724.9a65.9,65.9,0,0,0,64.5-52.6Z"/><circle class="cls-4" cx="1025" cy="1384.4" r="47.8"/><polygon class="cls-2" points="1263.1 1728.8 786.9 1728.8 881.4 1501.6 1168.6 1501.6 1263.1 1728.8"/><path class="cls-4" d="M1071.4,1564.9H1195l-26.4-63.3H881.4l-94.5,227.2H938.5l43.3-104.1A97,97,0,0,1,1071.4,1564.9Z"/><path class="cls-4" d="M732.4,1728.8h585.2a77.2,77.2,0,0,1,77.2,77.2v0a0,0,0,0,1,0,0H655.2a0,0,0,0,1,0,0v0A77.2,77.2,0,0,1,732.4,1728.8Z"/><path class="cls-2" d="M988,429.9,446.7,642.8c-12.7,5-12.7,22.9,0,27.8l572.8,225.3a14.9,14.9,0,0,0,11,0l572.8-225.3c12.7-4.9,12.7-22.8,0-27.8L1062,429.9A101.6,101.6,0,0,0,988,429.9Z"/><polygon class="cls-4" points="828.9 630.2 649.4 750.3 826 819.8 828.9 630.2"/><polygon class="cls-4" points="1221.1 630.2 1400.6 750.3 1224 819.8 1221.1 630.2"/><path class="cls-2" d="M1293.8,1043.1H756.2L806,655.2a29.3,29.3,0,0,1,22.9-25q214.4-47.7,393.3-.7a29.5,29.5,0,0,1,21.7,24.8Z"/><path class="cls-4" d="M890.7,716.2a29.6,29.6,0,0,1,22.9-25.1q179-39.9,333.3-13.6l-3-23.2a29.5,29.5,0,0,0-21.7-24.8q-179-47.1-393.3.7a29.3,29.3,0,0,0-22.9,25l-49.8,387.9h92.6Z"/><ellipse class="cls-4" cx="1025" cy="1043.1" rx="268.8" ry="33.1"/><path class="cls-4" d="M1425.6,981.5a13.4,13.4,0,0,1-13.5-13.4V587.5a13.5,13.5,0,0,1,26.9,0V968.1A13.4,13.4,0,0,1,1425.6,981.5Z"/><path class="cls-2" d="M1423.7,1113.1a46.5,46.5,0,0,1-46.5-46.4V992.2a46.5,46.5,0,0,1,92.9,0v74.5A46.5,46.5,0,0,1,1423.7,1113.1Z"/><path class="cls-4" d="M1400.6,1092.2v-74.6a46.4,46.4,0,0,1,66.5-41.8,46.5,46.5,0,0,0-89.9,16.4v74.5a46.6,46.6,0,0,0,26.4,41.9A47.2,47.2,0,0,1,1400.6,1092.2Z"/><rect class="cls-5" height="254.48" rx="40.4" ry="40.4" transform="translate(-109.3 183.6) rotate(-8.2)" width="80.9" x="1184.9" y="726.4"/><rect class="cls-5" height="254.48" rx="40.4" ry="40.4" transform="translate(296.4 1495.1) rotate(-70.1)" width="80.9" x="1174.4" y="408.9"/><rect class="cls-5" height="76.48" rx="19" ry="19" width="38.1" x="1431" y="999.7"/><rect class="cls-5" height="75.2" rx="37.6" ry="37.6" width="411.9" x="1263.1" y="1261.3"/><rect class="cls-5" height="122.46" rx="29.8" ry="29.8" transform="translate(-529.8 566.4) rotate(-21.9)" width="59.7" x="1168.3" y="1590.6"/></svg>