<!DOCTYPE svg PUBLIC "-//W3C//DTD SVG 1.1//EN" "http://www.w3.org/Graphics/SVG/1.1/DTD/svg11.dtd">
<!-- Uploaded to: SVG Repo, www.svgrepo.com, Transformed by: SVG Repo Mixer Tools -->
<svg version="1.1" id="Capa_1" xmlns="http://www.w3.org/2000/svg" xmlns:xlink="http://www.w3.org/1999/xlink" width="800px" height="800px" viewBox="0 0 800 800" enable-background="new 0 0 800 800" xml:space="preserve" fill="#000000" stroke="#000000">
<g id="SVGRepo_bgCarrier" stroke-width="0"/>
<g id="SVGRepo_tracerCarrier" stroke-linecap="round" stroke-linejoin="round" stroke="#CCCCCC" stroke-width="8"/>
<g id="SVGRepo_iconCarrier"> <g> <path fill="#FFFFFF" d="M774.193,326.882h-519.2l75.847,63.205c2.941,2.452,4.644,6.083,4.644,9.913 c0,3.83-1.702,7.461-4.644,9.913l-75.847,63.205h519.2V326.882z"/> <path fill="#259245" d="M678.57,659.064v-1c0-6.563-5.34-11.903-11.903-11.903H45.78l177.884-148.236h551.529v148.236h-56.914 c-6.563,0-11.903,5.34-11.903,11.903v1H678.57z"/> <path fill="#259245" d="M718.279,645.161h55.914V498.925H224.026L48.542,645.161h618.125c7.126,0,12.903,5.777,12.903,12.903 h25.806C705.376,650.938,711.153,645.161,718.279,645.161z"/> <polygon fill="#000000" points="223.664,302.075 45.78,153.839 775.193,153.839 775.193,302.075 "/> <polygon fill="#000000" points="224.026,301.075 774.193,301.075 774.193,154.839 48.542,154.839 "/> <polygon fill="#ED1F34" points="24.807,167.35 303.988,400 24.807,632.65 "/> <polygon fill="#ED1F34" points="302.426,400 25.807,169.485 25.807,630.516 "/> <path d="M787.097,129.032H12.903c-0.14,0-0.273,0.017-0.411,0.021c-0.274,0.009-0.549,0.016-0.821,0.042 c-0.224,0.021-0.444,0.06-0.664,0.093c-0.193,0.029-0.385,0.052-0.576,0.088c-0.241,0.046-0.477,0.11-0.712,0.17 c-0.168,0.043-0.339,0.081-0.506,0.131c-0.23,0.068-0.454,0.151-0.678,0.232c-0.172,0.062-0.346,0.119-0.516,0.188 c-0.203,0.084-0.401,0.179-0.599,0.274c-0.184,0.086-0.37,0.17-0.552,0.265c-0.176,0.093-0.343,0.196-0.513,0.298 c-0.195,0.113-0.389,0.225-0.577,0.351c-0.156,0.105-0.304,0.219-0.456,0.329c-0.188,0.136-0.377,0.269-0.558,0.417 c-0.162,0.131-0.313,0.275-0.468,0.413c-0.157,0.141-0.317,0.275-0.466,0.425c-0.208,0.205-0.401,0.425-0.594,0.644 c-0.081,0.091-0.168,0.174-0.246,0.267c-0.007,0.007-0.012,0.016-0.017,0.024c-0.273,0.331-0.533,0.674-0.774,1.031 c-0.021,0.031-0.036,0.062-0.057,0.093c-0.213,0.322-0.415,0.65-0.599,0.991c-0.088,0.163-0.16,0.332-0.239,0.499 c-0.103,0.213-0.213,0.423-0.304,0.642c-0.084,0.201-0.15,0.406-0.224,0.609c-0.069,0.192-0.146,0.38-0.207,0.576 c-0.074,0.243-0.129,0.49-0.189,0.735c-0.04,0.163-0.089,0.323-0.122,0.488c-0.079,0.389-0.138,0.781-0.179,1.175 c-0.003,0.026-0.009,0.051-0.012,0.079c-0.043,0.43-0.063,0.858-0.065,1.289C0.002,141.917,0,141.925,0,141.936v516.129 c0,0.011,0.002,0.019,0.002,0.027c0,0.431,0.021,0.86,0.065,1.289c0.003,0.027,0.009,0.053,0.012,0.079 c0.043,0.394,0.1,0.786,0.179,1.175c0.032,0.165,0.083,0.325,0.122,0.488c0.06,0.246,0.115,0.492,0.189,0.735 c0.061,0.195,0.138,0.385,0.207,0.576c0.074,0.203,0.139,0.409,0.224,0.608c0.091,0.219,0.201,0.429,0.305,0.643 c0.081,0.166,0.151,0.335,0.239,0.499c0.184,0.34,0.385,0.669,0.599,0.99c0.021,0.031,0.036,0.063,0.057,0.093 c0.241,0.356,0.5,0.7,0.774,1.031c0.007,0.007,0.012,0.015,0.018,0.023c0.044,0.054,0.095,0.099,0.139,0.15 c0.244,0.283,0.497,0.559,0.766,0.82c0.131,0.127,0.267,0.244,0.401,0.364c0.198,0.178,0.396,0.352,0.604,0.517 c0.16,0.127,0.323,0.246,0.487,0.364c0.2,0.144,0.402,0.281,0.609,0.413c0.17,0.108,0.339,0.214,0.513,0.312 c0.224,0.127,0.453,0.246,0.685,0.359c0.163,0.081,0.323,0.164,0.49,0.236c0.265,0.116,0.537,0.22,0.81,0.319 c0.141,0.052,0.279,0.108,0.421,0.155c0.32,0.104,0.647,0.189,0.978,0.269c0.103,0.023,0.207,0.057,0.31,0.079 c0.382,0.08,0.772,0.143,1.167,0.188c0.057,0.007,0.112,0.021,0.168,0.025c0.451,0.049,0.905,0.074,1.366,0.074h653.764 c7.126,0,12.903-5.777,12.903-12.903s-5.777-12.903-12.903-12.903H48.542l175.484-146.236h550.167v146.236h-55.914 c-7.126,0-12.903,5.777-12.903,12.903s5.777,12.903,12.903,12.903h68.817c7.126,0,12.903-5.777,12.903-12.903V141.936 C800,134.81,794.223,129.032,787.097,129.032z M774.193,301.075H224.026L48.542,154.839h725.651V301.075z M25.807,169.485 L302.426,400L25.807,630.516V169.485z M330.841,409.913c2.941-2.452,4.644-6.083,4.644-9.913c0-3.83-1.702-7.461-4.644-9.913 l-75.847-63.205h519.2v146.236h-519.2L330.841,409.913z"/> </g> </g>
</svg>